<svg width="25" height="24" viewBox="0 0 25 24" fill="none" xmlns="http://www.w3.org/2000/svg">
<g id="Iconly/Curved/Bold/3 User">
<g id="Vector">
<path fill-rule="evenodd" clip-rule="evenodd" d="M18.7876 12.2965C17.693 12.2965 16.6656 12.5174 15.8014 12.8918C18.826 13.7656 20.9672 15.8588 21.0248 18.3073C22.5995 18.1056 24.299 17.5103 24.299 15.8876C24.299 13.9384 21.7738 12.2965 18.7876 12.2965Z" fill="white"/>
<path fill-rule="evenodd" clip-rule="evenodd" d="M18.7588 10.9139H18.778C20.8232 10.9139 22.4939 9.24316 22.4939 7.20758C22.4939 5.16239 20.8232 3.49168 18.778 3.49168C18.3747 3.49168 17.9906 3.55889 17.6258 3.67411C18.2883 4.6535 18.6724 5.83452 18.6724 7.11156C18.682 8.4078 18.2787 9.65604 17.5201 10.693C17.9138 10.8371 18.3267 10.9139 18.7588 10.9139Z" fill="white"/>
<path fill-rule="evenodd" clip-rule="evenodd" d="M9.3298 12.8822C8.46563 12.5174 7.43824 12.2965 6.35324 12.2965C3.36707 12.2965 0.841797 13.9384 0.841797 15.8876C0.841797 17.5103 2.53172 18.096 4.10641 18.3073C4.15442 15.8588 6.29563 13.7656 9.3298 12.8822Z" fill="white"/>
<path fill-rule="evenodd" clip-rule="evenodd" d="M6.35324 10.9139H6.38205C6.81413 10.9139 7.22701 10.8371 7.62068 10.693C6.89094 9.69445 6.45886 8.45581 6.45886 7.11156C6.45886 5.83452 6.84293 4.6535 7.50546 3.67411C7.14059 3.55889 6.75652 3.49168 6.35324 3.49168C4.30805 3.49168 2.64694 5.16239 2.64694 7.20758C2.64694 9.24316 4.30805 10.9139 6.35324 10.9139Z" fill="white"/>
<path fill-rule="evenodd" clip-rule="evenodd" d="M12.5652 13.8684C8.76196 13.8684 5.54823 15.9385 5.54823 18.3889C5.54823 21.5575 10.8292 21.5575 12.5652 21.5575C15.5783 21.5575 19.5842 21.231 19.5842 18.4091C19.5842 15.9472 16.3695 13.8684 12.5652 13.8684Z" fill="white"/>
<path fill-rule="evenodd" clip-rule="evenodd" d="M12.5662 11.7839H12.5979C13.8413 11.78 15.0089 11.2913 15.8846 10.4089C16.7612 9.52649 17.2413 8.35603 17.2365 7.11452C17.2365 4.53835 15.1423 2.44324 12.5662 2.44324C9.99097 2.44324 7.89682 4.53835 7.89682 7.11452C7.89682 9.68876 9.99097 11.7839 12.5662 11.7839Z" fill="white"/>
</g>
</g>
</svg>
